<?xml version="1.0" standalone="no"?>
<!DOCTYPE svg PUBLIC "-//W3C//DTD SVG 20010904//EN"
 "http://www.w3.org/TR/2001/REC-SVG-20010904/DTD/svg10.dtd">
<svg version="1.0" xmlns="http://www.w3.org/2000/svg"
 width="225.000000pt" height="225.000000pt" viewBox="0 0 225.000000 225.000000"
 preserveAspectRatio="xMidYMid meet">

<g transform="translate(0.000000,225.000000) scale(0.100000,-0.100000)"
fill="#000000" stroke="none">
<path d="M940 2045 c-199 -42 -362 -134 -501 -283 -158 -169 -236 -357 -246
-593 -6 -146 4 -223 50 -358 l32 -94 -43 -211 c-24 -116 -43 -223 -42 -237 0
-31 32 -67 68 -76 16 -4 110 10 247 37 l221 43 75 -26 c119 -43 205 -59 325
-59 125 0 201 12 301 46 316 108 548 366 620 690 21 94 21 298 1 391 -77 344
-336 617 -679 715 -96 28 -331 36 -429 15z m-129 -853 c25 -22 31 -36 31 -67
0 -31 -6 -45 -31 -67 -40 -36 -80 -36 -120 -2 -26 21 -31 33 -31 69 0 36 5 48
31 69 40 34 80 34 120 -2z m380 -1 c21 -22 29 -39 29 -66 0 -51 -44 -95 -95
-95 -51 0 -95 44 -95 95 0 27 8 44 29 66 41 40 91 40 132 0z m368 3 c26 -21
31 -33 31 -69 0 -36 -5 -48 -31 -69 -40 -34 -80 -34 -120 2 -25 22 -31 36 -31
67 0 31 6 45 31 67 40 36 80 36 120 2z"/>
</g>
</svg>
